<svg xmlns="http://www.w3.org/2000/svg" viewBox="0 0 27 18" width="27" height="18" aria-hidden="true" focusable="false">
  <rect width="27" height="18" fill="#ED2939"/>
  <rect y="9" width="27" height="9" fill="#FFF"/>
  <circle cx="6.2" cy="4.5" r="3.2" fill="#FFF"/>
  <circle cx="7.35" cy="4.5" r="2.55" fill="#ED2939"/>
  <g fill="#FFF">
    <polygon points="12.2,2.1 12.45,2.85 13.25,2.85 12.6,3.3 12.85,4.05 12.2,3.6 11.55,4.05 11.8,3.3 11.15,2.85 11.95,2.85"/>
    <polygon transform="translate(2.15,0.7)" points="12.2,2.1 12.45,2.85 13.25,2.85 12.6,3.3 12.85,4.05 12.2,3.6 11.55,4.05 11.8,3.3 11.15,2.85 11.95,2.85"/>
    <polygon transform="translate(-0.15,2.35)" points="12.2,2.1 12.45,2.85 13.25,2.85 12.6,3.3 12.85,4.05 12.2,3.6 11.55,4.05 11.8,3.3 11.15,2.85 11.95,2.85"/>
    <polygon transform="translate(2.35,2.35)" points="12.2,2.1 12.45,2.85 13.25,2.85 12.6,3.3 12.85,4.05 12.2,3.6 11.55,4.05 11.8,3.3 11.15,2.85 11.95,2.85"/>
    <polygon transform="translate(1.1,3.55)" points="12.2,2.1 12.45,2.85 13.25,2.85 12.6,3.3 12.85,4.05 12.2,3.6 11.55,4.05 11.8,3.3 11.15,2.85 11.95,2.85"/>
  </g>
</svg>
